# xmcd
#
# Track frame offsets:
#	150
#	12703
#	26385
#	38885
#	53329
#	66168
#	81895
#	96233
#	111029
#	132440
#	145943
#	162432
#
# Disc length: 2385 seconds
#
# Revision: 1
# Processed by: cddbd v1.5.2PL0 Copyright (c) Steve Scherf et al.
# Submitted via: audiograbber 1.83.01
#
DISCID=9e094f0c
DTITLE=Willie Nelson and Asleep At The Wheel - Willie and The Wheel
DYEAR=2009
DGENRE=Country
TTITLE0=Hesitation blues
TTITLE1=Sweet Jennie Lee
TTITLE2=Fan it
TTITLE3=I ain't gonna give nobody none o' this jelly roll
TTITLE4=Oh! you pretty woman
TTITLE5=Bring it on down to my house
TTITLE6=Right or wrong
TTITLE7=Corrine Corrina
TTITLE8=I'm sittin' on top of the world
TTITLE9=Shame on you
TTITLE10=South (ft. Paul Shaffer and Vince Gill)
TTITLE11=Won't you ride in my little red wagon
EXTD=
EXTT0=
EXTT1=
EXTT2=
EXTT3=
EXTT4=
EXTT5=
EXTT6=
EXTT7=
EXTT8=
EXTT9=
EXTT10=
EXTT11=
PLAYORDER=
